Movie Info
Plot: A mercenary in Thailand is engaged by a 14 year old girl who gives his life a new meaning.
IMDB: http://www.imdb.com/title/tt1578882/
IMDB Rating: (awaiting 5 votes)
Trailer: N/A



General Info
Size: 1.29GB
Format: AVI
Runtime: 1:31:23



Sources
Video - Elephant White 2011 WP XViD AC3 - IMAGiNE
Audio - Elephant White 2011 WP XViD AC3 - IMAGiNE
(THANKS)



Video Info
ID : 0
Format : MPEG-4 Visual
Format profile : Advanced Simple@L5
Format settings, BVOP : Yes
Format settings, QPel : No
Format settings, GMC : No warppoints
Format settings, Matrix : Default (H.263)
Muxing mode : Packed bitstream
Codec ID : XVID
Codec ID/Hint : XviD
Duration : 1h 31mn
Bit rate : 1 822 Kbps
Width : 720 pixels
Height : 304 pixels
Display aspect ratio : 2.35:1
Frame rate : 23.976 fps
Color space : YUV
Chroma subsampling : 4:2:0
Bit depth : 8 bits
Scan type : Progressive
Compression mode : Lossy
Bits/(Pixel*Frame) : 0.347
Stream size : 1.16 GiB (90%)
Writing library : XviD 1.0.3 (UTC 2004-12-20)



Audio Info
ID : 1
Format : AC-3
Format/Info : Audio Coding 3
Mode extension : CM (complete main)
Codec ID : 2000
Duration : 1h 31mn
Bit rate mode : Constant
Bit rate : 192 Kbps
Channel(s) : 2 channels
Channel positions : Front: L R
Sampling rate : 48.0 KHz
Bit depth : 16 bits
Compression mode : Lossy
Stream size : 126 MiB (9%)
Alignment : Aligned on interleaves
Interleave, duration : 42 ms (1.00 video frame)
Interleave, preload duration : 512 ms



Encoders Notes
I dropped the source into vdubmod.
I lowered the brightness.
Then i increased the contrast, gamma & sauration.
Finaly i changed the colors with a rgb eq & sharpened it.
Its very good apart from the blurred bit at the bottem.
Its been on imagines site as a internal for a while.
So before they start moaning, how they feel is how the movie companys
feel & it doesnt stop them so why should it stop me?
Check the sample first to make sure your happy with the quality.
Enjoy...


I am looking for;
Cammers, Cams, Screeners (any type), Cam audio, Line audio,
Un-released R6's R5's R4's R2's R1's,
A 25GB+ FTP server, A Windows Server
& a syncer.
If you can provide any of these please
contact me at illusion@hushmail.me





================================== 
http://thepiratebay.org/user/hiest
==================================





Screenz:
 
http://leetleech.org/images/50678731556081427897.jpg
 
http://leetleech.org/images/14113872345967263904.jpg
 
http://leetleech.org/images/72549893372017348409.jpg
 
http://leetleech.org/images/85654577706844509411.jpg
 
http://leetleech.org/images/23623139008195049604.jpg
 
http://leetleech.org/images/07355148817575116775.jpg

